<svg id="Layer_1" data-name="Layer 1" xmlns="http://www.w3.org/2000/svg" viewBox="0 0 503.34 141.35"><defs><style>.cls-1{fill:#fefefe;}.cls-2{fill:#636262;}.cls-3{fill:#9a2424;}.cls-4{fill:#992525;}.cls-5{fill:#9a2323;}.cls-6{fill:#5a5757;}.cls-7{fill:#585554;}.cls-8{fill:#5d5c5c;}.cls-9{fill:#5f5e5e;}.cls-10{fill:#f4f3f3;}.cls-11{fill:#686767;}.cls-12{fill:#efe4e3;}.cls-13{fill:#706f6f;}.cls-14{fill:#888787;}.cls-15{fill:#969696;}.cls-16{fill:#aaa9a9;}</style></defs><title>logo</title><path class="cls-1" d="M481.11,265.16v2.24c0,1,0,2,0,3v-3C481.11,266.65,481.11,265.9,481.11,265.16Zm-81-3.1c0-1.8,0-3.59,0-5.38,0,1.79,0,3.59,0,5.38,0,1.6,0,3.21,0,4.81C400.11,265.26,400.1,263.66,400.1,262.06Zm-22.23,33.21h0Zm-157.23-1.83a0,0,0,0,1,0,0h0l0,0Z" transform="translate(-49.81 -168.89)"/><path class="cls-2" d="M553.15,269.71v3.17C551.64,271.91,551.64,270.84,553.15,269.71Z" transform="translate(-49.81 -168.89)"/><path class="cls-3" d="M253.23,191.82l-.61.32A2.23,2.23,0,0,1,253.23,191.82Z" transform="translate(-49.81 -168.89)"/><path class="cls-3" d="M353.67,201.72c-2.75,2.75-6.2,4.17-9.88,5.19a152.69,152.69,0,0,1-16.09,3.77q-6.87,1.13-13.82,1.78c-4.87.46-9.74.49-14.61.49a139.35,139.35,0,0,1-24.88-2.07,100.39,100.39,0,0,1-18.92-5.28,13.87,13.87,0,0,1-6.52-4.69c-2.3-3.16-.33-7.12,2.66-8.31.35-.14.68-.3,1-.46-1.58,1.08-2.27,3.93-.94,5.54a18.46,18.46,0,0,0,6,4.4c2.74,1.43,5.79,1.93,8.78,2.58,12.57,2.71,25.32,3.32,38.11,3.06a175.53,175.53,0,0,0,25.18-2.12c5.57-.91,11.13-1.93,16.37-4.18A17.38,17.38,0,0,0,350.3,199c2.25-1.81,2.45-4.37.3-6.54,2.21.67,4.11,1.88,4.91,4.17C356.22,198.64,355.09,200.3,353.67,201.72Z" transform="translate(-49.81 -168.89)"/><path class="cls-4" d="M157.24,271.9q-5-9.57-9.91-19.12a22.81,22.81,0,0,0-2.06-3.78c-.39.68-.76,1.28-1.09,1.89-1.92,3.59-3.86,7.16-5.75,10.76-1,2-2,4-3,6,.53.43.79-1.08,1.17-.25.25.55.61,1.55-.71,1.8-.39.08-.46,1.35-1.05.9s.4-1,.52-1.51a5.57,5.57,0,0,0,0-.92,36.37,36.37,0,0,0-2.31,4c-.36.6-.64.76-1.15.15-1.76-2.06-3.56-4.08-5.3-6.15-1-1.22-1-1.24.36-2.14.39-.26.71-.65,1.09-.94,2.22-1.67,2.59-4.05,2.16-6.5-.39-2.27-3.46-4.71-5.66-4.93-2.62-.27-5.24-.38-7.87-.39-1,0-1.25.3-1.24,1.27,0,5.89,0,11.78,0,17.67,0,4,0,4,4,3.74.7-.05.9-.27.89-.94,0-1.89,0-3.78,0-5.67,0-.44-.16-.94.36-1.44,1.9,2.38,3.78,4.67,5.59,7a2.29,2.29,0,0,0,2.09,1,47.12,47.12,0,0,1,6.06,0c2.22.22,3.73-.31,4.36-2.61a20.37,20.37,0,0,1,.95-1.86c.27-.67.7-.78,1.34-.78,2.38,0,4.76.1,7.12,0a2.48,2.48,0,0,1,2.75,1.77c1.52,3.5,1.58,3.48,5.41,3.47C158,273.39,158,273.39,157.24,271.9Zm-32.05-12.84a2.44,2.44,0,0,1-2.18,1.43c-2.63.32-2.63.27-2.67-2.6,0-.26,0-.52,0-.79,0-2.28.23-2.51,2.47-2S126,257.17,125.19,259.06Zm9.17,13.4c-.21.14-.39-.22-.41-.39-.08-.63,0-1.21.83-1.41C134.88,271.36,135,272,134.36,272.46Zm3.93-2.75c-.35.89-.69,1.77-1,2.66-.1.25-.17.52-.52.43a.46.46,0,0,1-.28-.64,3,3,0,0,1,1.83-2.45c0-.19,0-.42.31-.4a.2.2,0,0,1,.09.09C138.7,269.68,138.48,269.68,138.29,269.71Zm8.82-5.61c-1.27,0-2.54,0-3.82,0-.66,0-.75-.27-.47-.8l2.44-4.59c.86,1.65,1.6,3.12,2.36,4.58C147.92,263.87,147.72,264.1,147.11,264.1Z" transform="translate(-49.81 -168.89)"/><path class="cls-5" d="M290,180.88a11.65,11.65,0,1,1-11.67-12A11.63,11.63,0,0,1,290,180.88Z" transform="translate(-49.81 -168.89)"/><path class="cls-4" d="M219,273.4h-1.32c-1.89,0-1.86,0-2.14-1.85-.43-2.75-.89-5.5-1.36-8.25a6.54,6.54,0,0,0-.52-1.27l-7.07,13.21L199.94,262c-.81,2.42-1,4.63-1.51,6.75-.09.38-.16.77-.25,1.15-.26,1.15,0,2.74-.94,3.3s-2.31.1-3.49.2-1.32-.32-1.09-1.28c.54-2.34,1.05-4.68,1.57-7q1.78-8,3.58-16a3.45,3.45,0,0,1,.24-.59A16.36,16.36,0,0,1,200,252c2.08,4,4.08,8.12,6.1,12.19.13.27.18.68.5.71s.49-.42.65-.72q3.85-7.31,7.72-14.61c.22-.41.49-.8.82-1.32a18.67,18.67,0,0,1,1,4.18c1.34,6.31,2.58,12.65,3.87,19C221,273.42,221,273.41,219,273.4Z" transform="translate(-49.81 -168.89)"/><path class="cls-5" d="M300.47,192.36a10.9,10.9,0,0,1-11.89-2.54,1.06,1.06,0,0,1-.13-1.64A12.3,12.3,0,0,0,289.71,175c-.43-.89-.21-1.31.55-1.79a10.55,10.55,0,0,1,11.11-.65c3.86,2,5.84,5.29,5.89,10.51C307.49,186.72,304.32,190.88,300.47,192.36Z" transform="translate(-49.81 -168.89)"/><path class="cls-5" d="M318.08,193.93a10,10,0,0,1-11.47-4.27.87.87,0,0,1-.1-1.06,11.85,11.85,0,0,0,1.29-9.86,1.07,1.07,0,0,1,.29-1.18,9.88,9.88,0,0,1,14.23.36,9.08,9.08,0,0,1,2.58,6.68C325.19,188.88,321.65,192.82,318.08,193.93Z" transform="translate(-49.81 -168.89)"/><path class="cls-5" d="M293.51,206.89a141.82,141.82,0,0,1-31.76-4.19,4.69,4.69,0,0,1-.48-.2,12.85,12.85,0,0,1,6.27-5.38,9.49,9.49,0,0,1,3.94-.84c4.57.06,9.14.05,13.71.06s9.25,3.75,10.31,8C296.13,207,296.13,207,293.51,206.89Z" transform="translate(-49.81 -168.89)"/><path class="cls-6" d="M396.86,251.57l-5.66,11.75c-1.55,3.22-3.07,6.46-4.61,9.69-.16.33-.24.85-.68.81s-.35-.56-.47-.86q-2.7-6.54-5.36-13.09a.81.81,0,0,0-.5-.53c-2.15,4.85-4.32,9.71-6.52,14.68a2.18,2.18,0,0,1-.75-1q-4.68-10.31-9.4-20.59c-.38-.81-.2-.91.61-.93,2.89-.06,2.91-.1,4.11,2.57,1.59,3.54,3.15,7.1,4.74,10.65.11.26.28.65.48.69.47.09.47-.43.6-.72q2.87-6.48,5.7-13l.55-1.2c1.51,3.69,2.9,7.07,4.28,10.45.53,1.29,1.07,2.58,1.58,3.87.1.24.1.58.42.57s.41-.32.52-.55l4.59-9.55c.49-1,1-2.07,1.46-3.09.17-.35.37-.72.86-.71A20.13,20.13,0,0,1,396.86,251.57Z" transform="translate(-49.81 -168.89)"/><path class="cls-6" d="M260.19,272.8c-2.95.14-3.16,0-3.69-3.55q-.66-4.26-1.35-8.52c0-.11-.13-.2-.37-.52-2.38,4.6-4.7,9.07-7.09,13.7l-7.27-14c-.72,3.64-1.36,6.92-2,10.19-.11.6-.23,1.2-.32,1.8a.87.87,0,0,1-.87.83c-.92,0-2,.32-2.73-.07-1-.55-.08-1.58.08-2.36.68-3.23,1.47-6.44,2.19-9.67.79-3.48,1.55-7,2.33-10.44a1,1,0,0,1,.15-.29c2.78,5.49,5.55,10.93,8.45,16.64l8.73-16.82c1.14,5.65,2.21,11,3.3,16.36.39,1.91.81,3.81,1.23,5.72C261.09,272.49,261,272.77,260.19,272.8Z" transform="translate(-49.81 -168.89)"/><path class="cls-3" d="M178.75,272.2c0,1-.29,1.24-1.26,1.22-3.33,0-3.33,0-3.32-3.37,0-1.85,0-3.69,0-5.54,0-.83-.2-1.16-1.09-1.14-2.6.05-5.19.05-7.79,0-.87,0-1.13.24-1.11,1.11.06,2.59,0,5.19,0,7.78,0,.78-.11,1.16-1.05,1.17-3.51,0-3.53.07-3.54-3.43,0-6,0-12.05,0-18.08,0-.81.16-1.16,1.07-1.17,3.48-.06,3.48-.1,3.5,3.34,0,1.37,0,2.73,0,4.09,0,.74.27,1,1,1q4,0,7.92,0c.83,0,1.05-.31,1-1.09,0-2.07,0-4.14,0-6.2,0-.87.28-1.13,1.14-1.14,3.45-.05,3.45-.07,3.45,3.38v8.05C178.72,265.52,178.68,268.86,178.75,272.2Z" transform="translate(-49.81 -168.89)"/><path class="cls-4" d="M75,272.06q-5.74-11.15-11.48-22.28c-.14-.27-.21-.58-.62-.71L49.81,273.4c1.54,0,2.89,0,4.24,0a1.51,1.51,0,0,0,1.64-1c.54-1.14,1.18-2.24,1.72-3.39a1.33,1.33,0,0,1,1.43-.85c2.29.05,4.58.12,6.85,0,1.52-.09,2.55.29,3,1.82.77,3,2.68,3.92,5.62,3.44C75.65,273.21,75.69,273.37,75,272.06Zm-10.28-8c-1.27,0-2.54,0-3.81,0-.53,0-.86-.08-.5-.76.78-1.44,1.49-2.93,2.38-4.7.9,1.8,1.63,3.27,2.38,4.74C65.46,263.91,65.28,264.1,64.74,264.1Z" transform="translate(-49.81 -168.89)"/><path class="cls-7" d="M294.24,264.72c0,2.29,0,4.57,0,6.86,0,.88-.17,1.23-1.14,1.22-2.42,0-2.42,0-2.42-2.44q0-9.69,0-19.39a6.16,6.16,0,0,1,.08-.65,18.12,18.12,0,0,1,3.11,2.59c3.32,2.93,6.56,5.94,9.81,8.93,1.33,1.22,2.62,2.47,3.95,3.68.24.22.52.59.89.45s.22-.61.22-.93c0-4.13.05-8.27,0-12.4,0-1,.3-1.24,1.26-1.21,2.33.07,2.34,0,2.34,2.37q0,9.38,0,18.73a2.33,2.33,0,0,1-.24,1.46l-17.85-16.08Z" transform="translate(-49.81 -168.89)"/><path class="cls-6" d="M358.2,255.84a12.85,12.85,0,0,0-10.51-4.74,22.08,22.08,0,0,0-3.08.24,16.42,16.42,0,0,0-6.24,3.17,10.15,10.15,0,0,0-3.68,7.92,9.18,9.18,0,0,0,3.27,7,14,14,0,0,0,11,3.68,14.39,14.39,0,0,0,8-3.37A9.9,9.9,0,0,0,358.2,255.84Zm-1.57,7.84a8.1,8.1,0,0,1-6,6.17,10.72,10.72,0,0,1-3.14.37c-3.12-.17-5.95-1-7.75-3.83a7.9,7.9,0,0,1,5-12c3.25-.8,6.43-.54,9.07,1.64A7.33,7.33,0,0,1,356.63,263.68Z" transform="translate(-49.81 -168.89)"/><path class="cls-5" d="M333.51,195a9.14,9.14,0,0,1-9.61-2c-.63-.62-.85-1.05-.17-1.94a10.22,10.22,0,0,0,1.48-10.42c-.36-.94-.25-1.35.64-1.84,6.64-3.63,13.77,1.9,13.3,7.81C339.49,190.31,336.65,193.74,333.51,195Z" transform="translate(-49.81 -168.89)"/><path class="cls-6" d="M352.06,209.29A58.3,58.3,0,0,1,337.8,214a137.39,137.39,0,0,1-22.51,3c-4.6.25-9.21.49-13.8.41A186.68,186.68,0,0,1,280.11,216a144.53,144.53,0,0,1-20.33-3.94,67.11,67.11,0,0,1-7.27-2.51c0-.16.05-.32.08-.48,5.6,1.54,11.29,2.65,17,3.65A186.59,186.59,0,0,0,289,214.91a168.86,168.86,0,0,0,20.25.24c3.37-.17,6.74-.26,10.1-.53,4.72-.37,9.4-1,14.08-1.72,5.45-.86,10.8-2.12,16.15-3.42a.52.52,0,0,0,.61-.21l1.8-.5C352,208.94,352,209.12,352.06,209.29Z" transform="translate(-49.81 -168.89)"/><path class="cls-7" d="M433.61,271.91c-2-2.38-4-4.78-6-7.13-.67-.78-.55-1.09.41-1.39,2.35-.74,4.5-3.66,4.3-6a6.55,6.55,0,0,0-5.32-5.65,62.16,62.16,0,0,0-7.34-.32c-1,0-1.16.29-1.16,1.19,0,5.89,0,11.79,0,17.68,0,2.53,0,2.5,2.49,2.48.79,0,1.07-.21,1.05-1-.05-2.16,0-4.31,0-6.47,0-.41-.18-.94.4-1.13s.64.38.87.65c2,2.42,4,4.86,6,7.3.21.26.31.66.75.65a26.23,26.23,0,0,0,3.87-.1C434,272.25,433.77,272.11,433.61,271.91Zm-10.88-10.75c-.68,0-.68-.1-.68-3.36,0-.75.05-1.5,0-2.24-.08-.95.34-1.29,1.24-1.18s2.08.19,3.09.43a2.84,2.84,0,0,1,2.12,2.44,3,3,0,0,1-1.23,3,4.17,4.17,0,0,1-.77.49A7.42,7.42,0,0,1,422.73,261.16Z" transform="translate(-49.81 -168.89)"/><path class="cls-6" d="M286.75,271.3,276.3,251c-.16-.31-.24-.68-.59-.76L264.8,270.56c-1.2,2.21-1.2,2.15,1.36,2.24a1.88,1.88,0,0,0,2.16-1.35c.41-1.05,1-2,1.53-3.05a1.42,1.42,0,0,1,1.5-.8,45.65,45.65,0,0,0,6.19,0c2.59-.32,4.18.55,4.83,3.07.48,1.84,1.64,2.39,3.48,2.19C287.48,272.65,287.51,272.78,286.75,271.3Zm-14.66-6.66c1-2.48,2.37-4.66,3.58-7.13,1.47,2.33,2.43,4.76,3.71,7.13Z" transform="translate(-49.81 -168.89)"/><path class="cls-6" d="M547.3,261V251.5c0-2.33,0-2.26-2.26-2.33-1.17,0-1.37.39-1.35,1.43.06,3,0,6.07,0,9.1,0,.78-.15,1.12-1,.58a7.16,7.16,0,0,0-5-1.14c-4.65.5-7.19,4.93-5.78,9.43,1.21,3.91,6.18,5.73,10,4,.67-.29,1.48-1.72,2.09.11,0,.09.41.07.63.07a13.81,13.81,0,0,1,1.44,0c1,.14,1.25-.3,1.23-1.26C547.27,268,547.3,264.5,547.3,261Zm-7.77,9.53c-2,0-4.55-2.06-4.41-3.7.26-3.23,1.45-4.91,4.45-5s4.25,1.86,4.39,4.46A4.34,4.34,0,0,1,539.53,270.52Z" transform="translate(-49.81 -168.89)"/><path class="cls-6" d="M403.63,255.63a20.05,20.05,0,0,1,0,2.9c-.06.83.27,1,1.06,1,2.5-.05,5,0,7.51,0,1,0,1.27.31,1.15,1.21a3.54,3.54,0,0,0,0,.92c.1.84-.19,1.15-1.09,1.13-2.5-.06-5,0-7.51,0-.83,0-1.16.2-1.12,1.08.06,1.62.08,3.25,0,4.87,0,.93.22,1.23,1.16,1.21,2.59-.06,5.19.05,7.77,0,1.34-.06,1.1.73,1.12,1.5s.11,1.49-1.16,1.46c-3.78-.09-7.56-.05-11.34,0-.86,0-1.12-.25-1.11-1.12,0-1.6,0-3.21,0-4.81s0-3.21,0-4.81c0-1.79,0-3.59,0-5.38,0-1.37,0-2.74,0-4.11,0-.84.18-1.15,1.08-1.14,3.82,0,7.64.08,11.46,0,1.25,0,1.09.67,1.05,1.41s.37,1.61-1,1.57c-2.58-.09-5.18,0-7.77,0C403.82,254.33,403.57,254.68,403.63,255.63Z" transform="translate(-49.81 -168.89)"/><path class="cls-7" d="M331.79,256.58c-.54-1.91-3-4.54-5-4.85-2.54-.39-5.07-.14-7.6-.29-.87-.05-1.12.23-1.11,1.1.05,3.16,0,6.33,0,9.49V270c0,3,0,2.93,2.93,2.85.79,0,.94-.33.92-1,0-1.53,0-3.07,0-4.61,0-3.08,0-3.15,3-3.09C328.44,264.15,333,260.89,331.79,256.58Zm-5.47,4a9.34,9.34,0,0,1-3.59.59c-.57,0-.77-.22-.75-.78,0-.91,0-1.83,0-2.75a11.29,11.29,0,0,0,0-1.84c-.23-1.36.42-1.61,1.6-1.5a10.9,10.9,0,0,1,2.67.53,3,3,0,0,1,2.12,2.82A2.78,2.78,0,0,1,326.32,260.61Z" transform="translate(-49.81 -168.89)"/><path class="cls-3" d="M312.13,206.62c-4.78.38-9.56.3-14.35.33-.59,0-.78-.3-.84-.77a12,12,0,0,0-5.43-8.76c-.09-.06-.11-.21-.14-.29,4.17,0,8.37-.37,12.47.1a10.05,10.05,0,0,1,8.93,8.59C312.88,206.46,312.68,206.58,312.13,206.62Z" transform="translate(-49.81 -168.89)"/><path class="cls-7" d="M461.36,257.74c-.44-3-1.78-5.26-5.24-6-2.49-.51-5-.14-7.47-.3-.85-.06-1.13.19-1.11,1.08,0,3.16,0,6.33,0,9.49v8.31c0,2.51,0,2.46,2.49,2.47.94,0,1.08-.36,1.07-1.16-.05-2.06,0-4.13,0-6.19-.05-1.13.37-1.48,1.44-1.41a11.24,11.24,0,0,0,4.9-.61C459.51,262.6,461.66,259.81,461.36,257.74Zm-6.14,3.1a11.8,11.8,0,0,1-3.24.35c-.71,0-.91-.29-.88-.94,0-.88,0-1.76,0-2.63h0v-.79c0-2.67,0-2.71,2.71-2.42a4.67,4.67,0,0,1,2.89,1A3.18,3.18,0,0,1,455.22,260.84Z" transform="translate(-49.81 -168.89)"/><path class="cls-4" d="M89.29,271.73c.13.52.63,1.69-.83,1.68-3.43,0-6.85,0-10.28,0-.89,0-.85-.48-.85-1.08,0-3.39,0-6.77,0-10.15s0-6.85,0-10.27c0-.82.18-1.15,1.08-1.17,3.56-.08,3.53-.11,3.51,3.48,0,4.61,0,9.22,0,13.83,0,.91.26,1.21,1.19,1.17a46.15,46.15,0,0,1,5.39,0C90.29,269.39,89.08,270.89,89.29,271.73Z" transform="translate(-49.81 -168.89)"/><path class="cls-4" d="M100.77,273.4c-2.55,0-5.1,0-7.65,0-1.09,0-1.31-.34-1.29-1.34.06-3.3,0-6.6,0-9.9h0c0-3.43,0-6.86,0-10.29,0-.85.21-1.24,1.1-1.15a11.59,11.59,0,0,0,1.32,0c2.17,0,2.19,0,2.19,2.14,0,5,0,9.94,0,14.9,0,1.07.26,1.49,1.39,1.43,1.71-.1,3.43,0,5.14,0,.68,0,.89.19.93.88C104,273.4,104.06,273.4,100.77,273.4Z" transform="translate(-49.81 -168.89)"/><path class="cls-3" d="M328.33,205.06c-4.48.59-9,1-13.45,1.42-.71.07-.93-.2-1.06-.81a11.36,11.36,0,0,0-4.68-7.4,5.34,5.34,0,0,1,2.07-.14c3,0,6.06,0,9.09,0,4.12,0,6.94,1.93,8.84,5.47C329.68,204.6,329.48,204.91,328.33,205.06Z" transform="translate(-49.81 -168.89)"/><path class="cls-4" d="M188.44,272.35c0,.79-.2,1.12-1,1.06-1.23-.07-2.79.38-3.59-.22s-.23-2.23-.24-3.4c0-5.89,0-11.78,0-17.67,0-1,.12-1.54,1.27-1.34s2.64-.57,3.4.3.08,2.2.18,3.34v7.77h0C188.43,265.58,188.4,269,188.44,272.35Z" transform="translate(-49.81 -168.89)"/><path class="cls-7" d="M519.49,272.8c-3-.08-6-.06-9,0-.84,0-1-.28-1-1.06,0-3.21,0-6.42,0-9.63s0-6.43,0-9.64c0-.83.24-1,1-1,2.52,0,2.51,0,2.52,2.44,0,4.92,0,9.85,0,14.78,0,1,.25,1.29,1.25,1.24,1.71-.08,3.43.05,5.14,0,1.26-.07,1.06.72,1,1.44S520.82,272.83,519.49,272.8Z" transform="translate(-49.81 -168.89)"/><path class="cls-6" d="M478.6,259.2c-2.53,5-5.3,9.67-8,14.59-.7-1.29-1.3-2.44-1.93-3.56-1.84-3.28-3.67-6.56-5.54-9.82-.54-1-.36-1.1.74-1.26,2.2-.32,3.23.69,4,2.56s1.72,3.41,2.71,5.32c1.21-2.29,2.38-4.35,3.37-6.48a1.91,1.91,0,0,1,2.2-1.36C476.83,259.27,477.59,259.2,478.6,259.2Z" transform="translate(-49.81 -168.89)"/><path class="cls-6" d="M487.57,260.38c-.11.82.39,2-1.23,1.74-1.36-.23-1.73.35-1.68,1.67.1,2.59,0,5.18,0,7.77,0,1-.29,1.26-1.26,1.24-2.33,0-2.33,0-2.33-2.38,0-1,0-2,0-3v-2.24c0-.75,0-1.5,0-2.24,0-.52-.09-.84-.71-.81-1.6.09-.73-1.13-.88-1.77s-.1-1.3.88-1.14c.75.12.73-.33.71-.86,0-1.06,0-2.11,0-3.16,0-.63.2-.81.82-.84,2.76-.15,2.75-.17,2.76,2.62a3.62,3.62,0,0,1,0,.66c-.27,1.35.29,1.83,1.61,1.58C487.22,259,487.71,259.34,487.57,260.38Z" transform="translate(-49.81 -168.89)"/><path class="cls-8" d="M528.7,262.15c-1.73-.1-1.74,0-1.74,1.73,0,2.59,0,5.18,0,7.77,0,.83-.18,1.15-1.08,1.16-2.54,0-2.54.06-2.54-2.46v-7.24c0-.52,0-1-.73-1-1.56,0-.68-1.2-.85-1.85s.09-1.2,1-1.08c.53.07.64-.25.63-.73,0-1.09,0-2.19,0-3.29,0-.63.23-.81.85-.84,2.76-.17,2.76-.19,2.75,2.61v.52c0,1.71,0,1.81,1.7,1.7,1.38-.1,1.19.7,1.21,1.55S530,262.23,528.7,262.15Z" transform="translate(-49.81 -168.89)"/><path class="cls-3" d="M341.8,202a41.73,41.73,0,0,1-5.91,1.61c-1.49.35-3,.58-4.51.88-.47.09-.77.09-1-.5a10.12,10.12,0,0,0-3.64-4.95,2.09,2.09,0,0,1,1.41-.19c2.45,0,4.91-.08,7.37,0A8.82,8.82,0,0,1,341.8,202Z" transform="translate(-49.81 -168.89)"/><path class="cls-9" d="M264.18,292.63c-1.34,1.66-2.43,3.52-3.72,5.18-2.85,3.65-5.29,7.73-9.4,10.24a7.4,7.4,0,0,1-.65.44,1.54,1.54,0,0,1-.83.08,85,85,0,0,0,6.92-8.24c.37-.23.26-.5,0-.77a9.93,9.93,0,0,0,3-4.18c.55-1.73,2.94-3.63,4.25-3.58.25,0,.57-.1.72.19S264.34,292.44,264.18,292.63Z" transform="translate(-49.81 -168.89)"/><path class="cls-8" d="M360.77,283.23a73.55,73.55,0,0,0-8.54,10,17.53,17.53,0,0,0-1.43,2.35,1,1,0,0,0-.19.86c.33.75.33.83-.36.83s-1.61.42-2-.41.23-2,.72-2.54c1.57-1.73,2.85-3.69,4.43-5.4s2.82-3.21,4.25-4.8A2.87,2.87,0,0,1,360.77,283.23Z" transform="translate(-49.81 -168.89)"/><path class="cls-9" d="M199.51,284.75c-.18.23-.64.28-.46.74l-.34.33c-1.65-.06-2.62,1.16-3.5,2.17a19.42,19.42,0,0,0-3.89,5.7,5.46,5.46,0,0,0-.28.73c-.41,1.87.07,2.39,2.39,2.87a16,16,0,0,1-3.17-.05,1.86,1.86,0,0,1-1.58-1.8,5.85,5.85,0,0,1,1.57-4.81.6.6,0,0,0,.21-.59.55.55,0,0,0,.4-.48c2-1.77,4-3.61,6.58-4.53l.63-.63,1.43,0C199.5,284.49,199.51,284.62,199.51,284.75Z" transform="translate(-49.81 -168.89)"/><path class="cls-8" d="M343.59,283.36c-2.32,2.3-3.53,5.06-4.9,7.73a12.62,12.62,0,0,1-9.11,6.5c.84-.55,1.59-1,2.35-1.53,2.14-1.35,3-3.66,4.36-5.64.31-.46.59-.93.89-1.39,0-.2,0-.41,0-.62,1.19-.85,1.79-2.25,2.93-3.15A7.59,7.59,0,0,1,343.59,283.36Z" transform="translate(-49.81 -168.89)"/><path class="cls-9" d="M200.09,293.84c-3,3.89-5.51,8.18-9.14,11.6a15.41,15.41,0,0,1-2.7,1.82l-.4-.4a23.76,23.76,0,0,0,5-6.19c.76-1.36,2-2.24,2.72-3.59.11-.22.42-.43.27-.67s-.54,0-1.13-.11c2-.69,2.72-2.73,4.57-3.34.42-.14.87-.42,1.19,0S200.29,293.57,200.09,293.84Z" transform="translate(-49.81 -168.89)"/><path class="cls-8" d="M296.37,284.05c0,.23,0,.46,0,.69a40.41,40.41,0,0,0-4.49,4.76c-.5.15-.41.63-.56,1-1.8,1.38-2.69,3.41-3.72,5.32a.78.78,0,0,0,.33,1.12v.3h-1.05c-.14-.22-.31-.36-.59-.25a1.88,1.88,0,0,1-.39-2.78c.76-1.23,1.66-2.38,2.5-3.56.05-.13.09-.26.14-.38a3.64,3.64,0,0,0,1.16-1A18.1,18.1,0,0,1,296.37,284.05Z" transform="translate(-49.81 -168.89)"/><polygon class="cls-10" points="139.93 115.86 139.94 115.86 139.93 115.87 139.93 115.86"/><path class="cls-10" d="M197.44,285c-2.6.92-4.57,2.76-6.58,4.53l-.84,0,0,0a5.07,5.07,0,0,1-.51-4.48c.17,0,.25-.1.26-.27s.17-.18.26-.26c.52-.18,1.09-.28,1.41-.81l.13,0c.22,0,.45,0,.57-.27a12.25,12.25,0,0,1,3.72.35A1.79,1.79,0,0,1,197.44,285Z" transform="translate(-49.81 -168.89)"/><path class="cls-8" d="M287.45,286.19c-.87,1.25-2,2.31-2.61,3.77,0,.17-.09.35-.13.52-1.48.87-2.37,2.37-3.67,3.44a14.61,14.61,0,0,1-5.52,3.32c0-.13,0-.26,0-.39a18.56,18.56,0,0,0,5.8-6.25l.12-.37c1.45-.91,2.4-2.37,3.76-3.39a7.08,7.08,0,0,1,2.24-1.51C287.42,285.62,287.44,285.9,287.45,286.19Z" transform="translate(-49.81 -168.89)"/><path class="cls-8" d="M374.79,288a48.82,48.82,0,0,0-5.57,7.37c-.42.72-.5,1.15.5,1.33a2.65,2.65,0,0,1-2.46.51c-.72-.07-.9-.69-.62-1.29a11.53,11.53,0,0,1,2.78-4.34,34.57,34.57,0,0,0,2.82-3.09,5.77,5.77,0,0,1,1.87-1.42c.38-.17.8-.33,1.07.07S375,287.8,374.79,288Z" transform="translate(-49.81 -168.89)"/><path class="cls-9" d="M310.25,288.64c-1,1.53-1,1.52.65,2.13a.4.4,0,0,1,0,.15l-.21.4c-.84-.62-1.54-1-2.44.11a14.16,14.16,0,0,1-5.57,4.05c-.25.1-.51.26-.72,0s0-.52.19-.67c2.57-2,4.18-5,6.59-7.14,1-.93,2.16-1.77,3.2-2.68l.76-.55.4,0,.4.05a1.09,1.09,0,0,0,0,.25l-.57.48A19.27,19.27,0,0,0,310.25,288.64Z" transform="translate(-49.81 -168.89)"/><path class="cls-2" d="M301.34,284.53a.69.69,0,0,1-.12-.31h0A.79.79,0,0,1,301.34,284.53Z" transform="translate(-49.81 -168.89)"/><path class="cls-2" d="M298.64,292.79c-1.26.1-2.28-1.29-2.1-2.77.3-2.57,2.21-3.75,4.08-5,.27-.18.72-.16.72-.5.18.22.49,0,.77,0a6.46,6.46,0,0,1,2.51-.46C300.86,285.91,297.15,287.63,298.64,292.79Z" transform="translate(-49.81 -168.89)"/><path class="cls-8" d="M363.5,294.9c-.31.44-.87,1-.44,1.52s.82-.36,1.25-.15c-.92,1-2.9,1.49-3.56.82-.9-.91.21-1.55.45-2.31.71-.49.78-.67.44-1.08,1-.77,1.65-1.93,3.06-2.08.32,0,.6-.14.83.14s0,.55-.18.79C364.73,293.33,364.08,294.09,363.5,294.9Z" transform="translate(-49.81 -168.89)"/><path class="cls-2" d="M260.76,291.58a16.88,16.88,0,0,0-3.86,3.53c-.39.54-1,1-.55,1.82.23.38-.2.38-.42.38-.68,0-1.46.19-1.84-.63a2.07,2.07,0,0,1,.45-2.31A10.08,10.08,0,0,1,260.76,291.58Z" transform="translate(-49.81 -168.89)"/><path class="cls-9" d="M220.64,293.44l.05,0,0,0Z" transform="translate(-49.81 -168.89)"/><path class="cls-9" d="M224.54,292.51c-.36.49-.8.93-1.11,1.45-.54.9-1.75,1.34-1.48,2.84.11.59-1.12.55-1.79.44-.47-.07-.74-.33-.65-1s.91-1.17.91-1.95l0,0c.63.11.74-.42.78-.79s-.28-.13-.47-.07a4.79,4.79,0,0,1,3.3-1.79c.33-.06.6-.13.79.2S224.69,292.31,224.54,292.51Z" transform="translate(-49.81 -168.89)"/><path class="cls-8" d="M216.08,291.71c-1.56,1.24-3.17,2.37-4.08,4.16-.1.19-.14.45-.3.57s.62.83-.24.85a1.45,1.45,0,0,1-1.37-.58,2.38,2.38,0,0,1,.92-3.32A8,8,0,0,1,216.08,291.71Z" transform="translate(-49.81 -168.89)"/><path class="cls-9" d="M385.24,291.72a13.33,13.33,0,0,0-3.57,3.37,3.83,3.83,0,0,0-.66,1.25c-.08.31.35,1.14-.6,1a1.54,1.54,0,0,1-1.32-1.05c-.6-1.48.09-2.2,1.25-3A8.58,8.58,0,0,1,385.24,291.72Z" transform="translate(-49.81 -168.89)"/><path class="cls-8" d="M229.77,292.83c-.8,1.18-1.9,2.18-2.19,3.75l1.09.13a2.39,2.39,0,0,1-2.25.55c-.77-.09-1.27-.31-1-1.45.38-1.81,1.81-2.61,3-3.7a1.15,1.15,0,0,1,1-.3c.34.05.79-.15,1,.21S230,292.56,229.77,292.83Z" transform="translate(-49.81 -168.89)"/><path class="cls-8" d="M345.06,291.75a32.14,32.14,0,0,0-2.51,2c-.93.9-2.07,1.76-1.6,3.34a1.46,1.46,0,0,1-2.1-.67,3,3,0,0,1,1-3C341.48,292.56,343,291.42,345.06,291.75Z" transform="translate(-49.81 -168.89)"/><path class="cls-2" d="M322.94,296.66l.62.47c0,.15,0,.3,0,.45a3,3,0,0,0-2.9,0c.38-.42.71-.75.16-1.38-1.81-2.11-.75-4.34.84-5.67a4.54,4.54,0,0,1,3-1.23,4.8,4.8,0,0,0-2.92,4.4,2.12,2.12,0,0,0,.78,2.05C322.66,296.07,322.59,296.47,322.94,296.66Z" transform="translate(-49.81 -168.89)"/><path class="cls-9" d="M239,296.42a3.13,3.13,0,0,1-2.08.89c-.49,0-1.12.25-1.41-.39s.06-1.09.32-1.59.85-.67.73-1.3h0c.4,0,.45-.36.66-.55.48-.06.49-.48.63-.8.75-1.3,2-.77,3.26-.86a21.71,21.71,0,0,0-3,3.77C237.63,296.4,237.46,296.92,239,296.42Z" transform="translate(-49.81 -168.89)"/><path class="cls-8" d="M357.83,296.72a4.61,4.61,0,0,1-2.1.6c-1.1,0-1.52-.74-.91-1.65a4.51,4.51,0,0,0,1-1.9c.34.2.48-.1.64-.3a1.14,1.14,0,0,0,.74-.68c.51-1,.82-1.14,2.8-.87-.79,1.43-2,2.5-2.81,3.88C356.69,296.59,357.09,296.64,357.83,296.72Z" transform="translate(-49.81 -168.89)"/><path class="cls-9" d="M376.12,295c-.35.47-1,1-.24,1.61.21.19.13.25,0,.33a2.36,2.36,0,0,1-2.49.12c-.86-.63-.12-1.32.21-1.94a5.67,5.67,0,0,1,.45-.64c.63-.76,1.69-1.17,1.81-2.33.79-.52,1.65-.34,2.75-.32C377.67,293,376.87,294,376.12,295Z" transform="translate(-49.81 -168.89)"/><path class="cls-11" d="M292.06,296.52a.27.27,0,0,1,0,.12S292.05,296.55,292.06,296.52Z" transform="translate(-49.81 -168.89)"/><path class="cls-11" d="M305.14,296.62c-.7.74-2.59.87-4.23.54-2.42-.49-4.8-1.37-7.33-1.14-.31,0-.62,0-.92.05a.74.74,0,0,0-.6.44.74.74,0,0,1,0-.39,2.48,2.48,0,0,1,2.34-1.12,14.64,14.64,0,0,1,4.77.75,2.22,2.22,0,0,0,2.45-.28l.26.37c-.45.76.19.75.6.77C303.35,296.65,304.23,296.62,305.14,296.62Z" transform="translate(-49.81 -168.89)"/><path class="cls-8" d="M398.09,295.62c-.31.46-.43.9.57,1.15-1.18.4-2.21,1-2.91.1s.2-1.62.76-2.28c.43-.5.88-1,1.31-1.47s.45-.86-.29-1c.05-.08.08-.2.13-.21.8-.12,1.76-.91,2.34.14s-.3,1.61-.9,2.26A13.42,13.42,0,0,0,398.09,295.62Z" transform="translate(-49.81 -168.89)"/><path class="cls-9" d="M393.94,292.63c-1,1.64-1.7,3.56-3.58,4.51a1.34,1.34,0,0,1-.48.12c-1.12.06-1.18-.23-.71-.87a30.89,30.89,0,0,0,1.84-2.72c.23-.37,1.27-.72.23-1.35,0,0,0-.07,0-.09.52-.71,1.37-.43,2-.6A.67.67,0,0,1,393.94,292.63Z" transform="translate(-49.81 -168.89)"/><path class="cls-8" d="M494.61,271.27a2.89,2.89,0,0,1-2.19,2.12,2.79,2.79,0,0,1-2.26-2,2,2,0,0,1,2.12-1.85A2.08,2.08,0,0,1,494.61,271.27Z" transform="translate(-49.81 -168.89)"/><path class="cls-11" d="M287.4,284.78a.74.74,0,0,0,0,.21c-2.55,0-5.1.09-7.65,0a10.69,10.69,0,0,0-4.5,1.17c-1.61.69-2.28,3.13-1.5,4.89.13.27.29.52.47.85a3.17,3.17,0,0,1-1.39-4.26c1-2.51,3.19-3.09,5.53-3.27A70.11,70.11,0,0,1,287.4,284.78Z" transform="translate(-49.81 -168.89)"/><path class="cls-8" d="M251,295.5a5.42,5.42,0,0,0-.32.69c-.14.29,1,.7-.1.92-.69.14-1.42.44-2-.16s-.15-1.11.23-1.65a13.48,13.48,0,0,1,1.72-2.13c.37-.35.71-.79-.12-1v-.25c.8,0,1.75-.93,2.35.13s-.25,1.61-.85,2.26A11.11,11.11,0,0,0,251,295.5Z" transform="translate(-49.81 -168.89)"/><path class="cls-6" d="M311.64,293.91c1-1.58.92-2-.71-3l-.21.4c-.17,1.32-1.4,2-2,3-.43.8-.92,1.61-.5,2.47s1.34.37,2,.48c0-.13.05-.26.07-.39-.21-.14-.21-.29-.15-.55A7.71,7.71,0,0,1,311.64,293.91Zm-.23-1.5-.2-.28C311.53,292.05,311.34,292.32,311.41,292.41Z" transform="translate(-49.81 -168.89)"/><path class="cls-8" d="M246.75,292.67a10.25,10.25,0,0,1-.65,1.28,2.06,2.06,0,0,0-1.22,1.86,3.87,3.87,0,0,1-2.38,1.46c-.67.06-1.08-.07-.51-.84.7-.95,1.36-1.94,2-2.93.2-.33,1.15-.64.15-1.16a.16.16,0,0,1,0-.1c.5-.74,1.35-.45,2-.61C246.61,291.53,247,292.1,246.75,292.67Z" transform="translate(-49.81 -168.89)"/><path class="cls-8" d="M207.42,296.36h0Z" transform="translate(-49.81 -168.89)"/><path class="cls-8" d="M206.68,295.31c-.19.37-.7.68-.36,1.12s.69-.05,1.06-.07a4.62,4.62,0,0,1-2.22.93,1.55,1.55,0,0,1-1.48-.64c-.35-.5,0-1,.33-1.3,1-1.11,2.14-2.14,3.26-3.16a.78.78,0,0,1,1,.08c.33.29.15.65-.08.93A12,12,0,0,0,206.68,295.31Z" transform="translate(-49.81 -168.89)"/><path class="cls-12" d="M312.76,289.25c-.52.44-1.25.63-1.59,1.3l-.27.22c-1.64-.61-1.62-.6-.65-2.13a19.27,19.27,0,0,1,2.75-3.42c.67,0,.93.38,1,1A3.43,3.43,0,0,1,312.76,289.25Z" transform="translate(-49.81 -168.89)"/><path class="cls-9" d="M407.44,293.61c.27,2.58-.83,3.71-3.39,3.59,0-.17,0-.35,0-.52a14.91,14.91,0,0,0,2.26-4.76,1.79,1.79,0,0,1,2.31-1.31C407.29,291.39,407.3,292.33,407.44,293.61Z" transform="translate(-49.81 -168.89)"/><path class="cls-2" d="M341,297.11l.07,0H341Z" transform="translate(-49.81 -168.89)"/><path class="cls-2" d="M346.81,293.62c-.45,1.72-3.72,4.18-5.79,3.51a4.36,4.36,0,0,0,3.69-3.05c.24-.85,1.3-1.14,1.34-2.15,0-.21.43-.05.6.18A1.66,1.66,0,0,1,346.81,293.62Z" transform="translate(-49.81 -168.89)"/><path class="cls-2" d="M387.18,293.47a6,6,0,0,1-5.49,3.71c2.68-.95,3.26-3.43,4.82-5.24C387.26,292.08,387.42,292.82,387.18,293.47Z" transform="translate(-49.81 -168.89)"/><path class="cls-11" d="M313.33,290.18a17.09,17.09,0,0,1-2.16.37c.34-.67,1.07-.86,1.59-1.3a3.43,3.43,0,0,0,1.2-3c0-.61-.29-1-1-1l.57-.48.37.06a8.39,8.39,0,0,1,1.16,1.06C316.24,287.41,315.37,289.54,313.33,290.18Z" transform="translate(-49.81 -168.89)"/><path class="cls-2" d="M217.79,293.85a6,6,0,0,1-5.11,3.31c2.72-.74,2.89-3.62,4.67-5.23C218,292.32,218.29,292.89,217.79,293.85Z" transform="translate(-49.81 -168.89)"/><path class="cls-2" d="M272.64,297.55c-2.33,0-3.31-1.06-2.95-2.77a1.57,1.57,0,0,1,1.26-1.34,1,1,0,0,1,1.15.43,1.34,1.34,0,0,1-.15,1.79C271.18,296.47,271.46,297,272.64,297.55Z" transform="translate(-49.81 -168.89)"/><path class="cls-11" d="M246.82,310.06c-.86.06-1.86.56-2.47-.39s0-1.61.55-2.37a13.2,13.2,0,0,1,3.13-2.93c0,.25.05.5.08.75a17.3,17.3,0,0,0-2.17,2.6C245.22,309.15,245.39,309.58,246.82,310.06Z" transform="translate(-49.81 -168.89)"/><path class="cls-13" d="M206.09,284.51v0h0Z" transform="translate(-49.81 -168.89)"/><path class="cls-13" d="M206.43,286.3c-.32,1.87-3.8,4.15-6.08,3.92a13.69,13.69,0,0,1,1.9-1,9,9,0,0,0,3.39-2.6c.59-.57.48-1.34.45-2.08C207,285,206.52,285.77,206.43,286.3Z" transform="translate(-49.81 -168.89)"/><path class="cls-13" d="M404.06,296.68c0,.17,0,.35,0,.52-1.74.61-3-.23-4.09-1.5.69-.45,1-1.57,2.07-1.67.34,0,.73-.09.93.3s-.14.56-.31.8c-.33.48-1.16.92-.67,1.52S403.35,297,404.06,296.68Z" transform="translate(-49.81 -168.89)"/><path class="cls-14" d="M256.5,300.33c-1.53,0-2.57,1.13-3.84,1.72a38.57,38.57,0,0,0-4.55,3.07c0-.25-.05-.5-.08-.75a31.1,31.1,0,0,1,7.53-4.26c.36-.13.52-.61,1-.55C256.76,299.83,256.87,300.1,256.5,300.33Z" transform="translate(-49.81 -168.89)"/><path class="cls-11" d="M184.2,308.52c0,.11,0,.22,0,.33-1.58,0-2-1.1-1.26-2.23a8.25,8.25,0,0,1,3.28-3l.23.27c-.67.95-1.7,1.58-2.24,2.65A1.66,1.66,0,0,0,184.2,308.52Z" transform="translate(-49.81 -168.89)"/><path class="cls-14" d="M327.82,292.73c-1.15,1.19-2.76,1.71-4,2.74-.39.32-1,.52-.87,1.19-.35-.19-.28-.59-.45-.87a18.85,18.85,0,0,1,5.28-3.44C327.79,292.47,327.8,292.6,327.82,292.73Z" transform="translate(-49.81 -168.89)"/><path class="cls-11" d="M233.56,293.26c-.47.55-1,1-1.56,1.55l-.36-.35a3.82,3.82,0,0,1,.79-2c.29-.53.87-1.14,1.42-.75S233.94,292.82,233.56,293.26Z" transform="translate(-49.81 -168.89)"/><path class="cls-15" d="M192.57,300.1l-6,3.66c0-.14,0-.28,0-.42A15.57,15.57,0,0,1,192.57,300.1Z" transform="translate(-49.81 -168.89)"/><path class="cls-15" d="M250.45,291.88v.25l-5.57,3.68A2.06,2.06,0,0,1,246.1,294c.33.64.61.17.9,0A11.33,11.33,0,0,1,250.45,291.88Z" transform="translate(-49.81 -168.89)"/><path class="cls-14" d="M199.78,290.89a10.14,10.14,0,0,1-5.87.4,20.31,20.31,0,0,0,5.74-1c.3-.12.43.12.5.26C200.31,290.94,199.92,290.83,199.78,290.89Z" transform="translate(-49.81 -168.89)"/><path class="cls-15" d="M204.82,283.56a40,40,0,0,0-5.31,1.19c0-.13,0-.26,0-.39C201.15,283.31,203,283.43,204.82,283.56Z" transform="translate(-49.81 -168.89)"/><path class="cls-13" d="M243.29,287.89c-.13.88-.9,1.09-1.56,1.3-.39.13-.61-.25-.53-.67a1.33,1.33,0,0,1,1.37-1.28C243,287.22,243.36,287.37,243.29,287.89Z" transform="translate(-49.81 -168.89)"/><path class="cls-11" d="M417.17,295.76c0,.4-1.41,1.57-1.84,1.53s-.33-.51-.41-.73c0-1,.51-1.31,1.35-1.23C416.61,295.36,417.12,295.13,417.17,295.76Z" transform="translate(-49.81 -168.89)"/><path class="cls-2" d="M381.08,288c-.5.42-.88,1.09-1.68,1.21-.45.06-.72-.23-.57-.63.24-.63.42-1.4,1.38-1.31C380.62,287.31,381,287.37,381.08,288Z" transform="translate(-49.81 -168.89)"/><path class="cls-11" d="M412.64,295.79a2.25,2.25,0,0,1-1.7,1.43c-.48.16-.56-.29-.52-.66a1.26,1.26,0,0,1,1.39-1.25C412.14,295.37,412.77,295.22,412.64,295.79Z" transform="translate(-49.81 -168.89)"/><path class="cls-11" d="M421.59,295.84a2.47,2.47,0,0,1-1.78,1.37c-.49.16-.36-.43-.37-.75,0-.81.39-1.18,1.19-1.15C421,295.39,421.76,295.29,421.59,295.84Z" transform="translate(-49.81 -168.89)"/><path class="cls-14" d="M332.6,292.5c-.74,2.1-2.62,2.06-4.34,2.31,1.53-.59,3.08-1.16,4-2.71A.49.49,0,0,0,332.6,292.5Z" transform="translate(-49.81 -168.89)"/><path class="cls-13" d="M301.23,284.2l0,0h0S301.23,284.21,301.23,284.2Z" transform="translate(-49.81 -168.89)"/><path class="cls-13" d="M301.23,284.2c-1.15-1.05-2.37-.8-3.59-.12-.42.23-.85.44-1.28.66,0-.23,0-.46,0-.69,1.37-.68,2.74-1.44,4.31-.63C301,283.57,301.51,283.64,301.23,284.2Z" transform="translate(-49.81 -168.89)"/><path class="cls-16" d="M375.82,292.15c-.12,1.16-1.18,1.57-1.81,2.33-.67-.23-1.1.4-1.75.41A8.36,8.36,0,0,1,375.82,292.15Z" transform="translate(-49.81 -168.89)"/><path class="cls-2" d="M206.74,290.65c-.41.54-.55,1.51-1.34,1.28-.66,0-1-.17-.84-.56.24-.84,1-1,1.73-1.16C206.58,290.13,206.91,290.44,206.74,290.65Z" transform="translate(-49.81 -168.89)"/><path class="cls-16" d="M237.77,292.67c-.14.32-.15.74-.63.8s-.73,0-.66.55c-.65-.22-.83.47-1.26.68s-.68.81-1.72.61C235.15,294.37,235.9,292.7,237.77,292.67Z" transform="translate(-49.81 -168.89)"/><path class="cls-16" d="M337.22,288.41c0,.21,0,.42,0,.62-1.58.08-2.92,1-4.45,1.27l-.21-.19C334.08,289.53,335.5,288.54,337.22,288.41Z" transform="translate(-49.81 -168.89)"/><path class="cls-13" d="M198.07,284.4l-.63.63a1.79,1.79,0,0,0-1.6-1.24,12.25,12.25,0,0,0-3.72-.35h0C193.59,282.61,196.4,283.07,198.07,284.4Z" transform="translate(-49.81 -168.89)"/><path class="cls-13" d="M328.27,297.8a10.8,10.8,0,0,1-4.73-.22c0-.15,0-.3,0-.45C325.05,297.93,326.72,297.42,328.27,297.8Z" transform="translate(-49.81 -168.89)"/><path class="cls-16" d="M332,291.05c-1.54.2-2.75,1.26-4.21,1.68,0-.13,0-.26-.05-.38a8.3,8.3,0,0,1,3.69-1.53C331.7,290.79,331.94,290.73,332,291.05Z" transform="translate(-49.81 -168.89)"/><path class="cls-14" d="M188.25,307.26a7,7,0,0,1-4.09,1.59c0-.11,0-.22,0-.33,1.52.11,2.56-.82,3.65-1.66Z" transform="translate(-49.81 -168.89)"/><path class="cls-16" d="M355,294.05a4.71,4.71,0,0,1-3.35,2.32c1.36-.44,1.83-2.06,3.25-2.42Z" transform="translate(-49.81 -168.89)"/><path class="cls-15" d="M317,282.91c-.3.76-1.09.68-1.65,1a3.38,3.38,0,0,0-1.36.9l-.37-.06a1.09,1.09,0,0,1,0-.25l.12-.3A7.65,7.65,0,0,1,317,282.91Z" transform="translate(-49.81 -168.89)"/><path class="cls-15" d="M290.83,295.69a3.26,3.26,0,0,1-2.91,1.53v-.3Z" transform="translate(-49.81 -168.89)"/><path class="cls-13" d="M289.45,284.45l-2,1.74c0-.29,0-.57-.05-.86V285a.74.74,0,0,1,0-.21c.66,0,1.18-.44,1.79-.6Z" transform="translate(-49.81 -168.89)"/><path class="cls-16" d="M190,289.5a1.38,1.38,0,0,1-1.08-1.78,3.67,3.67,0,0,0,0-1.4c-.08-.52-.17-1.13.6-1.31h0A5.07,5.07,0,0,0,190,289.5Z" transform="translate(-49.81 -168.89)"/><path class="cls-14" d="M252.59,209.11c0,.16-.05.32-.08.48a6.72,6.72,0,0,1-3-1.46A8.29,8.29,0,0,1,252.59,209.11Z" transform="translate(-49.81 -168.89)"/><path class="cls-15" d="M288.53,290.24c0,.12-.09.25-.14.38l-3.68-.14c0-.17.09-.35.13-.52C286.05,290.28,287.33,289.77,288.53,290.24Z" transform="translate(-49.81 -168.89)"/><path class="cls-16" d="M220.63,293.47c0,.28-.47.45-.25.81l0,0c-1.13-.08-1.59,1.17-2.64,1.27C218.67,294.8,219.32,293.7,220.63,293.47Z" transform="translate(-49.81 -168.89)"/><path class="cls-16" d="M220.66,293.46h0a0,0,0,0,0,0,0Z" transform="translate(-49.81 -168.89)"/><path class="cls-14" d="M354.57,207.83a4.88,4.88,0,0,1-2.51,1.46c0-.17,0-.35-.05-.52A13.5,13.5,0,0,1,354.57,207.83Z" transform="translate(-49.81 -168.89)"/><path class="cls-7" d="M332.6,292.5a.49.49,0,0,1-.38-.4c0-.36.12-.74-.19-1.05-.09-.32-.33-.26-.57-.23.21-.45.32-1.05,1.06-.71l.21.19A4,4,0,0,1,332.6,292.5Z" transform="translate(-49.81 -168.89)"/><path class="cls-15" d="M294,290.31a5.17,5.17,0,0,1-2.73.17c.15-.35.06-.83.56-1-.05.62.42.52.78.55A4.6,4.6,0,0,1,294,290.31Z" transform="translate(-49.81 -168.89)"/><path class="cls-15" d="M199.55,287.75l-.84-1.93.34-.33A1.9,1.9,0,0,1,199.55,287.75Z" transform="translate(-49.81 -168.89)"/><path class="cls-16" d="M396.92,292.45c-.38.84-1.26.88-2,1.17a2.15,2.15,0,0,1,1.9-1.21Z" transform="translate(-49.81 -168.89)"/><path class="cls-15" d="M361.2,294.78l-.86.19s-.06,0-.11-.08a2.29,2.29,0,0,1,1.41-1.19C362,294.11,361.91,294.29,361.2,294.78Z" transform="translate(-49.81 -168.89)"/><path class="cls-15" d="M275.52,297.24c-.46.53-1,.48-1.82.37a2.39,2.39,0,0,1,1.78-.76C275.49,297,275.51,297.11,275.52,297.24Z" transform="translate(-49.81 -168.89)"/><path class="cls-15" d="M281.4,290.23l-.12.37H279.4A1.77,1.77,0,0,1,281.4,290.23Z" transform="translate(-49.81 -168.89)"/><path class="cls-15" d="M312.49,296.65a2,2,0,0,1-2.21.64c0-.13.05-.26.07-.39a5.47,5.47,0,0,0,2-.38Z" transform="translate(-49.81 -168.89)"/><path class="cls-16" d="M357.16,292.79a1.14,1.14,0,0,1-.74.68c-.25,0-.55-.06-.67.28h0l-.49,0a.57.57,0,0,0-.11-.11C355.67,293,356.21,292.47,357.16,292.79Z" transform="translate(-49.81 -168.89)"/><path class="cls-16" d="M312.72,296.36h0a0,0,0,0,0,0,0Z" transform="translate(-49.81 -168.89)"/><path class="cls-16" d="M314.39,295.12a2.28,2.28,0,0,1-1.64,1.23c.15-.8.94-1,1.44-1.42Z" transform="translate(-49.81 -168.89)"/><path class="cls-11" d="M312,285c.46-.45-.2-.59-.47-1.08.56.32.84.58,1.23.53Z" transform="translate(-49.81 -168.89)"/><path class="cls-16" d="M389.51,293.74a1.86,1.86,0,0,1-1.27,1.08l-.12-.12A1.27,1.27,0,0,1,389.51,293.74Z" transform="translate(-49.81 -168.89)"/><path class="cls-16" d="M389.53,293.74h0v0Z" transform="translate(-49.81 -168.89)"/><path class="cls-15" d="M232,294.81c-.14.73-.84.58-1.29.81l-.07-.05a3.43,3.43,0,0,1,1-1.11Z" transform="translate(-49.81 -168.89)"/><path class="cls-16" d="M262.58,296.62h0v0Z" transform="translate(-49.81 -168.89)"/><path class="cls-16" d="M264,295.68a2.6,2.6,0,0,1-1.4.94c.09-.73.75-.83,1.26-1.09Z" transform="translate(-49.81 -168.89)"/><path class="cls-16" d="M371.54,295.86c-.46.25-1.06.28-1.32.86C370.29,295.81,371,296,371.54,295.86Z" transform="translate(-49.81 -168.89)"/><path class="cls-16" d="M371.59,295.85h0l0,0Z" transform="translate(-49.81 -168.89)"/><path class="cls-16" d="M344.12,285.38c-.2.6-.2.6-1.1,1A2.11,2.11,0,0,1,344.12,285.38Z" transform="translate(-49.81 -168.89)"/><path class="cls-15" d="M359.29,295.78c-.49,0-.64.39-1,.6C358.51,296,358.72,295.63,359.29,295.78Z" transform="translate(-49.81 -168.89)"/><path class="cls-16" d="M191.42,283.68c-.32.53-.89.63-1.41.81h0C190.11,283.56,190.75,283.61,191.42,283.68Z" transform="translate(-49.81 -168.89)"/><path class="cls-16" d="M342.76,286.43c-.14.47-.35.71-.85.57C342,286.46,342.33,286.42,342.76,286.43Z" transform="translate(-49.81 -168.89)"/><path class="cls-16" d="M390.72,292.7a.53.53,0,0,1-.47.41c0-.09-.14-.23-.11-.27a1.19,1.19,0,0,1,.36-.31A.15.15,0,0,1,390.72,292.7Z" transform="translate(-49.81 -168.89)"/><path class="cls-9" d="M377.13,296.1l0,0v0Z" transform="translate(-49.81 -168.89)"/><path class="cls-9" d="M377.87,295.31c.08.55-.45.55-.72.77A1.33,1.33,0,0,1,377.87,295.31Z" transform="translate(-49.81 -168.89)"/><path class="cls-9" d="M377.89,295.3h0s0,0,0,0h0Z" transform="translate(-49.81 -168.89)"/><path class="cls-16" d="M190.86,289.56a.55.55,0,0,1-.4.48c-.31,0-.55-.13-.44-.52Z" transform="translate(-49.81 -168.89)"/><path class="cls-16" d="M262.58,296.64c-.05.28-.18.46-.49.4a.23.23,0,0,1-.12-.17C262.07,296.53,262.35,296.66,262.58,296.64Z" transform="translate(-49.81 -168.89)"/><path class="cls-16" d="M262.59,296.64h0v0Z" transform="translate(-49.81 -168.89)"/><path class="cls-16" d="M314.66,294.86a1.89,1.89,0,0,1-.2-.2c.11-.17.24-.47.45-.26S314.84,294.75,314.66,294.86Z" transform="translate(-49.81 -168.89)"/><path class="cls-16" d="M264.9,294.86a3.17,3.17,0,0,1-.35.29l-.17-.15c.08-.19.17-.38.42-.32C264.85,294.69,264.92,294.84,264.9,294.86Z" transform="translate(-49.81 -168.89)"/><path class="cls-15" d="M230.71,295.62c0,.42-.32.4-.58.48.15-.2.19-.5.51-.53Z" transform="translate(-49.81 -168.89)"/><path class="cls-15" d="M286.87,297.21c-.33.22-.46,0-.59-.25C286.56,296.85,286.73,297,286.87,297.21Z" transform="translate(-49.81 -168.89)"/><path class="cls-14" d="M350.21,209.27a.52.52,0,0,1-.61.21C349.74,209.22,349.92,209.08,350.21,209.27Z" transform="translate(-49.81 -168.89)"/><path class="cls-13" d="M206.07,284.53v0h0Z" transform="translate(-49.81 -168.89)"/><path class="cls-13" d="M206.08,284.5a.47.47,0,0,1-.2-.55A.45.45,0,0,1,206.08,284.5Z" transform="translate(-49.81 -168.89)"/><path class="cls-2" d="M320.64,297.76s-.05,0-.07.05a.83.83,0,0,0,0-.15S320.64,297.72,320.64,297.76Z" transform="translate(-49.81 -168.89)"/><path class="cls-16" d="M192.12,283.43h0c-.12.26-.35.24-.57.27C191.68,283.49,191.83,283.33,192.12,283.43Z" transform="translate(-49.81 -168.89)"/><path class="cls-16" d="M371.58,295.84l0,0,0,.05Z" transform="translate(-49.81 -168.89)"/><path class="cls-16" d="M371.72,295.66a1.34,1.34,0,0,1-.11.14c0-.07.06-.15.09-.23S371.73,295.64,371.72,295.66Z" transform="translate(-49.81 -168.89)"/><path class="cls-15" d="M359.94,295.18l0,.07-.12-.09s.06-.06.09-.06S359.92,295.15,359.94,295.18Z" transform="translate(-49.81 -168.89)"/><path class="cls-16" d="M264.55,295.15l-.27.27a1.29,1.29,0,0,0-.17-.16l.27-.26Z" transform="translate(-49.81 -168.89)"/><path class="cls-16" d="M189.75,284.75c0,.17-.09.27-.26.27h0c0-.21.06-.28.26-.26Z" transform="translate(-49.81 -168.89)"/><path class="cls-16" d="M190,284.48h0c-.09.08-.18.18-.26.26h0C189.73,284.56,189.81,284.46,190,284.48Z" transform="translate(-49.81 -168.89)"/><path class="cls-9" d="M377.87,295.27h.06l0,0v0h0Z" transform="translate(-49.81 -168.89)"/><path class="cls-9" d="M378.06,295.21s0,.05-.07.06h0Z" transform="translate(-49.81 -168.89)"/><path class="cls-16" d="M388.24,294.82c-.06.06-.15.16-.18.16-.19-.13,0-.2.06-.28Z" transform="translate(-49.81 -168.89)"/><path class="cls-16" d="M314.66,294.86l-.27.26-.2-.19.27-.27A1.89,1.89,0,0,0,314.66,294.86Z" transform="translate(-49.81 -168.89)"/><path class="cls-11" d="M313.65,284.19l-.12.3-.4-.05C313.25,284.24,313.4,284.1,313.65,284.19Z" transform="translate(-49.81 -168.89)"/><path class="cls-9" d="M301.87,295.84l-.26-.37C302,295.41,302.1,295.5,301.87,295.84Z" transform="translate(-49.81 -168.89)"/><path class="cls-16" d="M355.28,293.8l-.27.25-.1-.1.26-.26A.57.57,0,0,1,355.28,293.8Z" transform="translate(-49.81 -168.89)"/><polygon class="cls-8" points="157.67 127.43 157.61 127.47 157.59 127.46 157.67 127.43"/><polygon class="cls-15" points="180.32 127.21 180.29 127.24 180.32 127.21 180.32 127.21"/><path class="cls-16" d="M389.52,293.72h0l0,0Z" transform="translate(-49.81 -168.89)"/><path class="cls-16" d="M389.64,293.6s0,.06,0,.08l-.06,0A.76.76,0,0,1,389.64,293.6Z" transform="translate(-49.81 -168.89)"/><polygon class="cls-9" points="327.33 127.22 327.28 127.24 327.32 127.21 327.33 127.22"/><path class="cls-15" d="M312.35,296.52l.34-.12-.2.25Z" transform="translate(-49.81 -168.89)"/><path class="cls-15" d="M312.74,296.38l-.05,0,0,0Z" transform="translate(-49.81 -168.89)"/><polygon class="cls-9" points="326.69 127.59 326.63 127.66 326.59 127.58 326.69 127.59"/><path class="cls-8" d="M397.15,292.26l-.23.19-.09,0,.23-.22Z" transform="translate(-49.81 -168.89)"/><polygon class="cls-13" points="156.06 115.05 156.01 115.04 156.05 115.04 156.06 115.05"/><path class="cls-16" d="M264.28,295.42l-.28.26-.14-.15.25-.27A1.29,1.29,0,0,1,264.28,295.42Z" transform="translate(-49.81 -168.89)"/><path class="cls-11" d="M186.58,303.76a.23.23,0,0,1-.17.1l-.23-.27.39-.25C186.58,303.48,186.58,303.62,186.58,303.76Z" transform="translate(-49.81 -168.89)"/><polygon class="cls-15" points="267.14 114.02 267.17 113.99 267.14 114.02 267.14 114.02"/><path class="cls-10" d="M120.34,257.89c0-.26,0-.52,0-.79,0-2.28.23-2.51,2.47-2s3.2,2.08,2.38,4a2.44,2.44,0,0,1-2.18,1.43C120.38,260.81,120.38,260.76,120.34,257.89Z" transform="translate(-49.81 -168.89)"/><path class="cls-12" d="M145.26,258.71c.86,1.65,1.6,3.12,2.36,4.58.3.58.1.81-.51.81-1.27,0-2.54,0-3.82,0-.66,0-.75-.27-.47-.8Z" transform="translate(-49.81 -168.89)"/><path class="cls-3" d="M135.87,269.15c-.39.08-.46,1.35-1.05.9s.4-1,.52-1.51a5.57,5.57,0,0,0,0-.92l0,0c.53.43.79-1.08,1.17-.25C136.83,267.9,137.19,268.9,135.87,269.15Z" transform="translate(-49.81 -168.89)"/><path class="cls-3" d="M138.29,269.71c-.35.89-.69,1.77-1,2.66-.1.25-.17.52-.52.43a.46.46,0,0,1-.28-.64,3,3,0,0,1,1.83-2.45Z" transform="translate(-49.81 -168.89)"/><path class="cls-3" d="M134.78,270.66c.1.7.23,1.37-.42,1.8-.21.14-.39-.22-.41-.39C133.87,271.44,134,270.86,134.78,270.66Z" transform="translate(-49.81 -168.89)"/><path class="cls-3" d="M138.29,269.71c0-.19,0-.42.31-.4a.2.2,0,0,1,.09.09c0,.28-.21.28-.4.31Z" transform="translate(-49.81 -168.89)"/><path class="cls-12" d="M62.81,258.64c.9,1.8,1.63,3.27,2.38,4.74.27.53.09.72-.45.72-1.27,0-2.54,0-3.81,0-.53,0-.86-.08-.5-.76C61.21,261.9,61.92,260.41,62.81,258.64Z" transform="translate(-49.81 -168.89)"/><path class="cls-10" d="M422.05,257.8c0-.75.05-1.5,0-2.24-.08-.95.34-1.29,1.24-1.18s2.08.19,3.09.43a2.84,2.84,0,0,1,2.12,2.44,3,3,0,0,1-1.23,3,4.17,4.17,0,0,1-.77.49,7.42,7.42,0,0,1-3.76.42C422.05,261.12,422.05,261.06,422.05,257.8Z" transform="translate(-49.81 -168.89)"/><path class="cls-10" d="M272.09,264.64c1-2.48,2.37-4.66,3.58-7.13,1.47,2.33,2.43,4.76,3.71,7.13Z" transform="translate(-49.81 -168.89)"/><path class="cls-10" d="M322,257.67a11.29,11.29,0,0,0,0-1.84c-.23-1.36.42-1.61,1.6-1.5a10.9,10.9,0,0,1,2.67.53,3,3,0,0,1,2.12,2.82,2.78,2.78,0,0,1-2,2.93,9.34,9.34,0,0,1-3.59.59c-.57,0-.77-.22-.75-.78C322,259.51,322,258.59,322,257.67Z" transform="translate(-49.81 -168.89)"/><path class="cls-10" d="M451.1,257.62v-.79c0-2.67,0-2.71,2.71-2.42a4.67,4.67,0,0,1,2.89,1,3.18,3.18,0,0,1-1.48,5.41,11.8,11.8,0,0,1-3.24.35c-.71,0-.91-.29-.88-.94,0-.88,0-1.76,0-2.63Z" transform="translate(-49.81 -168.89)"/><path class="cls-1" d="M221.16,293.49c0,.37-.15.9-.78.79-.22-.36.21-.53.25-.81a0,0,0,0,0,0,0l.05,0C220.88,293.36,221.19,293.26,221.16,293.49Z" transform="translate(-49.81 -168.89)"/><path class="cls-1" d="M236.48,294c-.07-.54.31-.53.66-.55C236.93,293.66,236.88,294.05,236.48,294Z" transform="translate(-49.81 -168.89)"/><path class="cls-1" d="M356.42,293.47c-.16.2-.3.5-.64.3h0C355.87,293.41,356.17,293.49,356.42,293.47Z" transform="translate(-49.81 -168.89)"/><path class="cls-9" d="M311.41,292.41l-.2-.28c.32-.08.13.19.2.28Z" transform="translate(-49.81 -168.89)"/><path class="cls-9" d="M311.41,292.41l.11.06-.11-.06Z" transform="translate(-49.81 -168.89)"/></svg>